# This file uses centimeters as units for non-parametric coordinates.

mtllib box2.mtl
g default
v -1.181190 0.038089 0.972749
v 0.994249 0.038090 0.972750
v -1.179142 1.681175 0.970651
v 0.994648 1.679362 0.973994
v -1.179142 1.681175 -1.114329
v 0.995957 1.682024 -1.117529
v -1.181190 0.038089 -1.112230
v 0.994250 0.038090 -1.112230
v -0.021277 2.030453 -1.111271
v -0.019440 2.023932 0.973733
v -0.094289 1.907406 0.970651
v 0.994249 1.681508 0.972750
v 0.994249 1.681508 -1.112230
v -0.106013 1.904941 -1.114329
v -1.181190 1.681508 0.972750
v -0.075499 1.681508 0.972750
v -1.181190 1.681508 -1.112230
v -0.087480 1.681508 -1.112230
v -1.154488 0.147091 0.946001
v 0.967547 0.147091 0.946001
v -1.154488 0.152180 -1.085482
v 0.967546 0.152180 -1.085482
v -1.154488 1.676214 0.946001
v 0.967547 1.676214 0.946001
v 0.967546 1.681304 -1.085482
v -1.154489 1.681305 -1.085481
v -1.181190 1.681508 -1.112230
v -0.087480 1.681508 -1.112230
v 0.994249 1.681508 -1.112230
v 0.994249 0.038089 -1.112230
v -1.181190 0.038089 -1.112230
v -1.154488 1.670588 -1.085482
v 0.967547 1.670588 -1.085482
v 0.967546 0.141465 -1.085482
v -1.154488 0.141465 -1.085482
v -1.183938 1.704174 0.970651
v -0.099085 1.930405 0.970651
v -0.110809 1.927940 -1.114329
v -1.183938 1.704174 -1.114329
v -0.012887 2.055046 -1.111218
v -0.011050 2.048525 0.973786
v 1.003038 1.703956 0.974047
v 1.004348 1.706617 -1.117476
vt 0.375000 0.000000
vt 0.625000 0.000000
vt 0.375000 0.250000
vt 0.625000 0.250000
vt 0.375000 0.500000
vt 0.625000 0.500000
vt 0.375000 0.750000
vt 0.625000 0.750000
vt 0.375000 1.000000
vt 0.625000 1.000000
vt 0.875000 0.000000
vt 0.125000 0.000000
vt 0.500688 0.500000
vt 0.502065 0.250000
vt 0.502065 0.250000
vt 0.625000 0.250000
vt 0.875000 0.250000
vt 0.625000 0.500000
vt 0.500688 0.500000
vt 0.375000 0.250000
vt 0.502065 0.250000
vt 0.125000 0.250000
vt 0.375000 0.500000
vt 0.500688 0.500000
vt 0.375000 0.000000
vt 0.625000 0.000000
vt 0.625000 0.250000
vt 0.375000 0.250000
vt 0.375000 0.500000
vt 0.625000 0.500000
vt 0.625000 0.750000
vt 0.375000 0.750000
vt 0.625000 1.000000
vt 0.375000 1.000000
vt 0.875000 0.000000
vt 0.875000 0.250000
vt 0.125000 0.000000
vt 0.125000 0.250000
vt 0.375000 0.500000
vt 0.500688 0.500000
vt 0.625000 0.500000
vt 0.625000 0.750000
vt 0.375000 0.750000
vt 0.375000 0.500000
vt 0.625000 0.500000
vt 0.625000 0.750000
vt 0.375000 0.750000
vt 0.375000 0.250000
vt 0.502065 0.250000
vt 0.500688 0.500000
vt 0.375000 0.500000
vt 0.375000 0.250000
vt 0.502065 0.250000
vt 0.500688 0.500000
vt 0.375000 0.500000
vt 0.500688 0.500000
vt 0.502065 0.250000
vt 0.625000 0.250000
vt 0.625000 0.500000
vt 0.500688 0.500000
vt 0.502065 0.250000
vt 0.625000 0.250000
vt 0.625000 0.500000
vn -0.000000 -0.000000 1.000000
vn -0.000000 -0.000000 1.000000
vn -0.000000 -0.000000 1.000000
vn -0.000000 -0.000000 1.000000
vn -0.000000 -0.000000 1.000000
vn 0.322888 0.946435 0.002040
vn 0.322888 0.946435 0.002040
vn 0.322888 0.946435 0.002040
vn 0.322888 0.946435 0.002040
vn -0.000000 -0.000000 -1.000000
vn -0.000000 -0.000000 -1.000000
vn -0.000000 -0.000000 -1.000000
vn -0.000000 -0.000000 -1.000000
vn -0.000000 -0.000000 -1.000000
vn 0.000000 -1.000000 -0.000000
vn 0.000000 -1.000000 -0.000000
vn 0.000000 -1.000000 -0.000000
vn 0.000000 -1.000000 -0.000000
vn 1.000000 0.000000 0.000000
vn 1.000000 0.000000 0.000000
vn 1.000000 0.000000 0.000000
vn 1.000000 0.000000 0.000000
vn -1.000000 -0.000000 -0.000000
vn -1.000000 -0.000000 -0.000000
vn -1.000000 -0.000000 -0.000000
vn -1.000000 -0.000000 -0.000000
vn -0.204136 0.978943 -0.000005
vn -0.204136 0.978943 -0.000005
vn -0.204136 0.978943 -0.000005
vn -0.204136 0.978943 -0.000005
vn -0.000000 0.000000 -1.000000
vn -0.000000 0.000000 -1.000000
vn -0.000000 0.000000 -1.000000
vn -0.000000 0.000000 -1.000000
vn 0.000000 0.000000 1.000000
vn 0.000000 0.000000 1.000000
vn 0.000000 0.000000 1.000000
vn 0.000000 0.000000 1.000000
vn -0.000000 0.999997 0.002505
vn -0.000000 0.999997 0.002505
vn -0.000000 0.999997 0.002505
vn -0.000000 0.999997 0.002505
vn -1.000000 0.000000 0.000000
vn -1.000000 0.000000 0.000000
vn -1.000000 0.000000 0.000000
vn -1.000000 0.000000 0.000000
vn 1.000000 0.000000 -0.000000
vn 1.000000 0.000000 -0.000000
vn 1.000000 0.000000 -0.000000
vn 1.000000 0.000000 -0.000000
vn 0.000000 0.000000 0.000000
vn 0.000000 0.000000 0.000000
vn 0.000000 0.000000 0.000000
vn 0.000000 0.000000 0.000000
vn 0.000000 0.000000 0.000000
vn 0.000000 0.000000 0.000000
vn 0.000000 0.000000 0.000000
vn 0.000000 0.000000 0.000000
vn -0.000000 0.000000 -0.000000
vn -0.171284 0.000000 -0.985222
vn -0.171284 0.000000 -0.985222
vn -0.000000 0.000000 -0.000000
vn 0.000000 -0.444788 0.895636
vn 0.000000 -0.444788 0.895636
vn 0.000000 -0.444788 0.895636
vn 0.000000 -0.444788 0.895636
vn -0.429614 0.000000 0.903013
vn -0.000000 0.000000 0.000000
vn -0.000000 0.000000 0.000000
vn -0.429614 0.000000 0.903013
vn -0.000000 0.000089 -1.000000
vn -0.000000 0.000089 -1.000000
vn -0.000000 0.000089 -1.000000
vn -0.000000 0.000089 -1.000000
vn 0.000000 0.000000 0.000000
vn 0.890612 0.000000 0.454764
vn 0.000000 0.000000 0.000000
vn 0.890612 0.000000 0.454764
vn 0.000000 0.000000 1.000000
vn 0.000000 0.000000 1.000000
vn 0.000000 0.000000 1.000000
vn 0.000000 0.000000 1.000000
vn -0.947993 -0.000000 -0.318291
vn -0.000000 -0.000000 -0.000000
vn -0.947993 -0.000000 -0.318291
vn -0.000000 -0.000000 -0.000000
vn 0.204136 -0.978943 0.000005
vn 0.204136 -0.978943 0.000005
vn 0.204136 -0.978943 0.000005
vn 0.204136 -0.978943 0.000005
vn -0.000001 0.000005 1.000000
vn -0.000001 0.000005 1.000000
vn -0.000001 0.000005 1.000000
vn -0.000001 0.000005 1.000000
vn 0.978926 0.204134 -0.005746
vn 0.978926 0.204134 -0.005746
vn 0.978926 0.204134 -0.005746
vn 0.978926 0.204134 -0.005746
vn 0.000000 0.000000 -1.000000
vn 0.000000 0.000000 -1.000000
vn 0.000000 0.000000 -1.000000
vn 0.000000 0.000000 -1.000000
vn -0.978942 -0.204141 0.000000
vn -0.978942 -0.204141 0.000000
vn -0.978942 -0.204141 0.000000
vn -0.978942 -0.204141 0.000000
vn -0.322888 -0.946435 -0.002040
vn -0.322888 -0.946435 -0.002040
vn -0.322888 -0.946435 -0.002040
vn -0.322888 -0.946435 -0.002040
vn -0.946437 0.322884 0.001844
vn -0.946437 0.322884 0.001844
vn -0.946437 0.322884 0.001844
vn -0.946437 0.322884 0.001844
vn -0.000888 -0.001854 0.999998
vn -0.000888 -0.001854 0.999998
vn -0.000888 -0.001854 0.999998
vn -0.000888 -0.001854 0.999998
vn 0.946435 -0.322895 0.000182
vn 0.946435 -0.322895 0.000182
vn 0.946435 -0.322895 0.000182
vn 0.946435 -0.322895 0.000182
vn -0.004848 0.003806 -0.999981
vn -0.004848 0.003806 -0.999981
vn -0.004848 0.003806 -0.999981
vn -0.004848 0.003806 -0.999981
s off
g pCube3
usemtl initialShadingGroup
f 1/1/1 2/2/2 12/16/3 16/21/4 15/20/5
f 40/60/6 41/61/7 42/62/8 43/63/9
f 27/39/10 28/40/11 29/41/12 30/42/13 31/43/14
f 7/7/15 8/8/16 2/10/17 1/9/18
f 2/2/19 8/11/20 13/17/21 12/16/22
f 7/12/23 1/1/24 15/20/25 17/22/26
f 36/52/27 37/53/28 38/54/29 39/55/30
f 19/25/31 23/28/32 24/27/33 20/26/34
f 32/44/35 35/47/36 34/46/37 33/45/38
f 21/32/39 19/34/40 20/33/41 22/31/42
f 20/26/43 24/27/44 25/36/45 22/35/46
f 21/37/47 26/38/48 23/28/49 19/25/50
f 17/23/51 18/24/52 28/40/53 27/39/54
f 18/24/55 13/18/56 29/41/57 28/40/58
f 13/18/59 8/8/60 30/42/61 29/41/62
f 8/8/63 7/7/64 31/43/65 30/42/66
f 7/7/67 17/23/68 27/39/69 31/43/70
f 26/29/71 25/30/72 33/45/73 32/44/74
f 25/30/75 22/31/76 34/46/77 33/45/78
f 22/31/79 21/32/80 35/47/81 34/46/82
f 21/32/83 26/29/84 32/44/85 35/47/86
f 3/48/87 5/51/88 14/50/89 11/49/90
f 3/3/91 11/15/92 37/53/93 36/52/94
f 11/15/95 14/19/96 38/54/97 37/53/98
f 14/19/99 5/5/100 39/55/101 38/54/102
f 5/5/103 3/3/104 36/52/105 39/55/106
f 9/56/107 6/59/108 4/58/109 10/57/110
f 9/13/111 10/14/112 41/61/113 40/60/114
f 10/14/115 4/4/116 42/62/117 41/61/118
f 4/4/119 6/6/120 43/63/121 42/62/122
f 6/6/123 9/13/124 40/60/125 43/63/126
