# This file uses centimeters as units for non-parametric coordinates.

mtllib closet.mtl
g default
v 1.950797 0.420677 2.067438
v 2.235251 0.420677 2.067438
v 1.950797 4.984456 2.067438
v 2.235251 4.984456 2.067438
v 1.950797 4.984456 0.002123
v 2.156424 4.984456 -0.000391
v 1.950797 0.420677 0.002123
v 2.156424 0.420677 -0.000391
v 2.219090 0.420677 0.100307
v 1.934636 0.420677 0.124142
v 2.219088 4.984456 0.100307
v 1.934632 4.984456 0.124142
v 2.297915 4.984456 -1.962493
v 1.934634 4.984456 -1.941172
v 2.297918 0.420677 -1.962492
v 1.934638 0.420677 -1.941172
v -1.746631 0.398810 2.068169
v 2.215581 0.398810 2.068169
v -1.746631 0.528713 2.068169
v 2.215581 0.528713 2.068169
v -1.746631 0.528713 -1.988343
v 2.215581 0.528713 -1.988343
v -1.746631 0.398810 -1.988343
v 2.215581 0.398810 -1.988343
v -1.695619 4.922803 2.068169
v 2.266263 4.973934 2.068169
v 2.266263 4.973934 -1.988343
v -1.695619 4.922803 -1.988343
v 2.014930 0.535242 -1.485989
v 1.977374 0.534331 -1.412287
v 1.918879 0.533607 -1.353797
v 1.845171 0.533143 -1.316244
v 1.763465 0.532983 -1.303304
v 1.681760 0.533143 -1.316244
v 1.608052 0.533607 -1.353797
v 1.549557 0.534331 -1.412287
v 1.512001 0.535242 -1.485989
v 1.499060 0.536252 -1.567690
v 1.512001 0.537262 -1.649388
v 1.549557 0.538174 -1.723090
v 1.608052 0.538897 -1.781581
v 1.681760 0.539361 -1.819134
v 1.763465 0.539521 -1.832074
v 1.845171 0.539361 -1.819134
v 1.918879 0.538897 -1.781581
v 1.977373 0.538174 -1.723090
v 2.014929 0.537262 -1.649388
v 2.027870 0.536252 -1.567690
v 1.763465 0.007483 -1.574227
v -1.570844 0.535242 -1.485989
v -1.533288 0.534331 -1.412287
v -1.474793 0.533607 -1.353797
v -1.401085 0.533143 -1.316244
v -1.319379 0.532983 -1.303304
v -1.237673 0.533143 -1.316244
v -1.163966 0.533607 -1.353797
v -1.105471 0.534331 -1.412287
v -1.067915 0.535242 -1.485989
v -1.054974 0.536252 -1.567690
v -1.067915 0.537262 -1.649388
v -1.105471 0.538174 -1.723090
v -1.163966 0.538897 -1.781581
v -1.237673 0.539361 -1.819134
v -1.319379 0.539521 -1.832074
v -1.401085 0.539361 -1.819134
v -1.474793 0.538897 -1.781581
v -1.533287 0.538174 -1.723090
v -1.570843 0.537262 -1.649388
v -1.583784 0.536252 -1.567690
v -1.319379 0.007483 -1.574227
v -1.564471 0.535242 1.782314
v -1.526916 0.534331 1.856016
v -1.468420 0.533607 1.914506
v -1.394713 0.533143 1.952060
v -1.313007 0.532983 1.964999
v -1.231301 0.533143 1.952060
v -1.157593 0.533607 1.914506
v -1.099099 0.534331 1.856016
v -1.061543 0.535242 1.782314
v -1.048601 0.536252 1.700614
v -1.061543 0.537262 1.618915
v -1.099099 0.538174 1.545213
v -1.157593 0.538897 1.486723
v -1.231301 0.539361 1.449170
v -1.313007 0.539521 1.436229
v -1.394713 0.539361 1.449170
v -1.468420 0.538897 1.486723
v -1.526916 0.538174 1.545213
v -1.564471 0.537262 1.618915
v -1.577412 0.536252 1.700614
v -1.313007 0.007483 1.694076
v 2.021302 0.535242 1.782314
v 1.983746 0.534331 1.856016
v 1.925251 0.533607 1.914506
v 1.851543 0.533143 1.952060
v 1.769838 0.532983 1.964999
v 1.688132 0.533143 1.952060
v 1.614424 0.533607 1.914506
v 1.555930 0.534331 1.856016
v 1.518373 0.535242 1.782314
v 1.505432 0.536252 1.700614
v 1.518373 0.537262 1.618915
v 1.555930 0.538174 1.545213
v 1.614424 0.538897 1.486723
v 1.688132 0.539361 1.449170
v 1.769838 0.539521 1.436229
v 1.851543 0.539361 1.449170
v 1.925251 0.538897 1.486723
v 1.983746 0.538174 1.545213
v 2.021302 0.537262 1.618915
v 2.034242 0.536252 1.700614
v 1.769838 0.007483 1.694076
v -1.708604 4.987450 2.085676
v 2.221581 4.987450 2.085676
v -1.708604 0.421307 2.052420
v 2.221581 0.421307 2.052420
v -1.708604 0.421307 -1.955504
v 2.221581 0.421307 -1.955504
v 2.221581 4.987450 -1.988478
v -1.708604 4.987450 2.085676
v 2.221581 4.987450 2.085676
v 2.221581 0.421307 2.085676
v -1.708604 0.421307 2.085676
v -1.708604 4.987450 2.085676
v 2.221581 4.987450 2.085676
v 2.221581 0.421307 2.085676
v -1.708604 0.421307 2.085676
v -1.708604 0.421307 -1.988478
v 2.221581 0.421307 -1.988478
v 2.221581 4.987450 -1.988478
v -1.708604 4.987450 -1.988478
v 2.221581 4.987450 2.085676
v -1.708604 4.987450 2.085676
v -1.708604 0.421307 2.085676
vt 0.375000 0.000000
vt 0.625000 0.000000
vt 0.375000 0.250000
vt 0.625000 0.250000
vt 0.375000 0.500000
vt 0.625000 0.500000
vt 0.375000 0.750000
vt 0.625000 0.750000
vt 0.375000 1.000000
vt 0.625000 1.000000
vt 0.875000 0.000000
vt 0.875000 0.250000
vt 0.125000 0.000000
vt 0.125000 0.250000
vt 0.375000 0.000000
vt 0.625000 0.000000
vt 0.625000 0.250000
vt 0.375000 0.250000
vt 0.625000 0.500000
vt 0.375000 0.500000
vt 0.625000 0.750000
vt 0.375000 0.750000
vt 0.625000 1.000000
vt 0.375000 1.000000
vt 0.875000 0.000000
vt 0.875000 0.250000
vt 0.125000 0.000000
vt 0.125000 0.250000
vt 0.375000 0.000000
vt 0.625000 0.000000
vt 0.625000 0.250000
vt 0.375000 0.250000
vt 0.625000 0.500000
vt 0.375000 0.500000
vt 0.625000 0.750000
vt 0.375000 0.750000
vt 0.625000 1.000000
vt 0.375000 1.000000
vt 0.875000 0.000000
vt 0.875000 0.250000
vt 0.125000 0.000000
vt 0.125000 0.250000
vt 0.375000 0.250000
vt 0.375000 0.500000
vt 0.625000 0.500000
vt 0.625000 0.250000
vt 0.737764 0.172746
vt 0.750000 0.250000
vt 0.737764 0.327254
vt 0.702254 0.396946
vt 0.646946 0.452254
vt 0.577254 0.487764
vt 0.500000 0.500000
vt 0.422746 0.487764
vt 0.353054 0.452254
vt 0.297746 0.396946
vt 0.262236 0.327254
vt 0.250000 0.250000
vt 0.262236 0.172746
vt 0.297746 0.103054
vt 0.353054 0.047746
vt 0.422746 0.012236
vt 0.500000 -0.000000
vt 0.577254 0.012236
vt 0.646946 0.047746
vt 0.702254 0.103054
vt 0.250000 0.500000
vt 0.275000 0.500000
vt 0.500000 1.000000
vt 0.300000 0.500000
vt 0.325000 0.500000
vt 0.350000 0.500000
vt 0.375000 0.500000
vt 0.400000 0.500000
vt 0.425000 0.500000
vt 0.450000 0.500000
vt 0.475000 0.500000
vt 0.500000 0.500000
vt 0.525000 0.500000
vt 0.550000 0.500000
vt 0.575000 0.500000
vt 0.600000 0.500000
vt 0.625000 0.500000
vt 0.650000 0.500000
vt 0.675000 0.500000
vt 0.700000 0.500000
vt 0.725000 0.500000
vt 0.750000 0.500000
vt 0.737764 0.172746
vt 0.702254 0.103054
vt 0.646946 0.047746
vt 0.577254 0.012236
vt 0.500000 -0.000000
vt 0.422746 0.012236
vt 0.353054 0.047746
vt 0.297746 0.103054
vt 0.262236 0.172746
vt 0.250000 0.250000
vt 0.262236 0.327254
vt 0.297746 0.396946
vt 0.353054 0.452254
vt 0.422746 0.487764
vt 0.500000 0.500000
vt 0.577254 0.487764
vt 0.646946 0.452254
vt 0.702254 0.396946
vt 0.737764 0.327254
vt 0.750000 0.250000
vt 0.250000 0.500000
vt 0.500000 1.000000
vt 0.275000 0.500000
vt 0.300000 0.500000
vt 0.325000 0.500000
vt 0.350000 0.500000
vt 0.375000 0.500000
vt 0.400000 0.500000
vt 0.425000 0.500000
vt 0.450000 0.500000
vt 0.475000 0.500000
vt 0.500000 0.500000
vt 0.525000 0.500000
vt 0.550000 0.500000
vt 0.575000 0.500000
vt 0.600000 0.500000
vt 0.625000 0.500000
vt 0.650000 0.500000
vt 0.675000 0.500000
vt 0.700000 0.500000
vt 0.725000 0.500000
vt 0.750000 0.500000
vt 0.737764 0.172746
vt 0.702254 0.103054
vt 0.646946 0.047746
vt 0.577254 0.012236
vt 0.500000 -0.000000
vt 0.422746 0.012236
vt 0.353054 0.047746
vt 0.297746 0.103054
vt 0.262236 0.172746
vt 0.250000 0.250000
vt 0.262236 0.327254
vt 0.297746 0.396946
vt 0.353054 0.452254
vt 0.422746 0.487764
vt 0.500000 0.500000
vt 0.577254 0.487764
vt 0.646946 0.452254
vt 0.702254 0.396946
vt 0.737764 0.327254
vt 0.750000 0.250000
vt 0.250000 0.500000
vt 0.500000 1.000000
vt 0.275000 0.500000
vt 0.300000 0.500000
vt 0.325000 0.500000
vt 0.350000 0.500000
vt 0.375000 0.500000
vt 0.400000 0.500000
vt 0.425000 0.500000
vt 0.450000 0.500000
vt 0.475000 0.500000
vt 0.500000 0.500000
vt 0.525000 0.500000
vt 0.550000 0.500000
vt 0.575000 0.500000
vt 0.600000 0.500000
vt 0.625000 0.500000
vt 0.650000 0.500000
vt 0.675000 0.500000
vt 0.700000 0.500000
vt 0.725000 0.500000
vt 0.750000 0.500000
vt 0.737764 0.172746
vt 0.750000 0.250000
vt 0.737764 0.327254
vt 0.702254 0.396946
vt 0.646946 0.452254
vt 0.577254 0.487764
vt 0.500000 0.500000
vt 0.422746 0.487764
vt 0.353054 0.452254
vt 0.297746 0.396946
vt 0.262236 0.327254
vt 0.250000 0.250000
vt 0.262236 0.172746
vt 0.297746 0.103054
vt 0.353054 0.047746
vt 0.422746 0.012236
vt 0.500000 -0.000000
vt 0.577254 0.012236
vt 0.646946 0.047746
vt 0.702254 0.103054
vt 0.250000 0.500000
vt 0.275000 0.500000
vt 0.500000 1.000000
vt 0.300000 0.500000
vt 0.325000 0.500000
vt 0.350000 0.500000
vt 0.375000 0.500000
vt 0.400000 0.500000
vt 0.425000 0.500000
vt 0.450000 0.500000
vt 0.475000 0.500000
vt 0.500000 0.500000
vt 0.525000 0.500000
vt 0.550000 0.500000
vt 0.575000 0.500000
vt 0.600000 0.500000
vt 0.625000 0.500000
vt 0.650000 0.500000
vt 0.675000 0.500000
vt 0.700000 0.500000
vt 0.725000 0.500000
vt 0.750000 0.500000
vt 0.375000 0.000000
vt 0.625000 0.000000
vt 0.625000 0.250000
vt 0.375000 0.250000
vt 0.375000 0.250000
vt 0.625000 0.250000
vt 0.625000 0.500000
vt 0.375000 0.500000
vt 0.375000 0.500000
vt 0.625000 0.500000
vt 0.625000 0.750000
vt 0.375000 0.750000
vt 0.625000 1.000000
vt 0.375000 1.000000
vt 0.125000 0.000000
vt 0.375000 0.000000
vt 0.375000 0.250000
vt 0.125000 0.250000
vt 0.375000 0.000000
vt 0.625000 0.000000
vt 0.625000 0.000000
vt 0.375000 0.000000
vt 0.625000 0.250000
vt 0.375000 0.250000
vt 0.625000 0.750000
vt 0.625000 1.000000
vt 0.375000 1.000000
vt 0.125000 0.250000
vn 0.000000 0.000000 1.000000
vn 0.000000 0.000000 1.000000
vn 0.000000 0.000000 1.000000
vn 0.000000 0.000000 1.000000
vn 0.000000 1.000000 0.000000
vn 0.000000 1.000000 0.000000
vn 0.000000 1.000000 0.000000
vn 0.000000 1.000000 0.000000
vn -0.012226 0.000000 -0.999925
vn -0.012226 0.000000 -0.999925
vn -0.012226 0.000000 -0.999925
vn -0.012226 0.000000 -0.999925
vn 0.000000 -1.000000 0.000000
vn 0.000000 -1.000000 0.000000
vn 0.000000 -1.000000 0.000000
vn 0.000000 -1.000000 0.000000
vn 0.999274 0.000000 -0.038093
vn 0.999274 0.000000 -0.038093
vn 0.999274 0.000000 -0.038093
vn 0.999274 0.000000 -0.038093
vn -1.000000 0.000000 0.000000
vn -1.000000 0.000000 0.000000
vn -1.000000 0.000000 0.000000
vn -1.000000 0.000000 0.000000
vn 0.083500 0.000000 0.996508
vn 0.083500 0.000000 0.996508
vn 0.083500 0.000000 0.996508
vn 0.083500 0.000000 0.996508
vn 0.000000 1.000000 0.000000
vn 0.000000 1.000000 0.000000
vn 0.000000 1.000000 0.000000
vn 0.000000 1.000000 0.000000
vn -0.058587 -0.000000 -0.998282
vn -0.058587 -0.000000 -0.998282
vn -0.058587 -0.000000 -0.998282
vn -0.058587 -0.000000 -0.998282
vn 0.000000 -1.000000 0.000000
vn 0.000000 -1.000000 0.000000
vn 0.000000 -1.000000 0.000000
vn 0.000000 -1.000000 0.000000
vn -1.000000 -0.000001 -0.000001
vn -1.000000 -0.000001 -0.000001
vn -1.000000 -0.000001 -0.000001
vn -1.000000 -0.000001 -0.000001
vn 0.999271 0.000001 0.038186
vn 0.999271 0.000001 0.038186
vn 0.999271 0.000001 0.038186
vn 0.999271 0.000001 0.038186
vn 0.000000 0.000000 1.000000
vn 0.000000 0.000000 1.000000
vn 0.000000 0.000000 1.000000
vn 0.000000 0.000000 1.000000
vn 0.000000 1.000000 0.000000
vn 0.000000 1.000000 0.000000
vn 0.000000 1.000000 0.000000
vn 0.000000 1.000000 0.000000
vn 0.000000 0.000000 -1.000000
vn 0.000000 0.000000 -1.000000
vn 0.000000 0.000000 -1.000000
vn 0.000000 0.000000 -1.000000
vn 0.000000 -1.000000 0.000000
vn 0.000000 -1.000000 0.000000
vn 0.000000 -1.000000 0.000000
vn 0.000000 -1.000000 0.000000
vn 1.000000 0.000004 0.000000
vn 1.000000 0.000004 0.000000
vn 1.000000 0.000004 0.000000
vn 1.000000 0.000004 0.000000
vn -1.000000 -0.000004 0.000000
vn -1.000000 -0.000004 0.000000
vn -1.000000 -0.000004 0.000000
vn -1.000000 -0.000004 0.000000
vn 0.012905 -0.999917 0.000000
vn 0.012905 -0.999917 0.000000
vn 0.012905 -0.999917 0.000000
vn 0.012905 -0.999917 0.000000
vn -0.000000 0.999924 0.012364
vn -0.000000 0.999924 0.012364
vn -0.000000 0.999924 0.012364
vn -0.000000 0.999924 0.012364
vn -0.000000 0.999924 0.012364
vn -0.000000 0.999924 0.012364
vn -0.000000 0.999924 0.012364
vn -0.000000 0.999924 0.012364
vn -0.000000 0.999924 0.012364
vn -0.000000 0.999924 0.012364
vn -0.000000 0.999924 0.012364
vn -0.000000 0.999924 0.012364
vn -0.000000 0.999924 0.012364
vn -0.000000 0.999924 0.012364
vn -0.000000 0.999924 0.012364
vn -0.000000 0.999924 0.012364
vn -0.000000 0.999924 0.012364
vn -0.000000 0.999924 0.012364
vn -0.000000 0.999924 0.012364
vn -0.000000 0.999924 0.012364
vn 0.850652 -0.450597 0.270840
vn 0.723606 -0.453680 0.520162
vn -0.000001 -0.999924 -0.012366
vn 0.525730 -0.456127 0.718023
vn 0.276394 -0.457697 0.845056
vn 0.000000 -0.458239 0.888829
vn -0.276394 -0.457697 0.845056
vn -0.525730 -0.456126 0.718023
vn -0.723607 -0.453679 0.520162
vn -0.850651 -0.450597 0.270841
vn -0.894427 -0.447180 -0.005530
vn -0.850651 -0.443762 -0.281903
vn -0.723607 -0.440678 -0.531220
vn -0.525731 -0.438232 -0.729081
vn -0.276395 -0.436662 -0.856115
vn 0.000000 -0.436122 -0.899888
vn 0.276395 -0.436661 -0.856115
vn 0.525731 -0.438232 -0.729082
vn 0.723608 -0.440678 -0.531220
vn 0.850651 -0.443761 -0.281902
vn 0.894427 -0.447180 -0.005530
vn -0.000000 0.999924 0.012365
vn -0.000000 0.999924 0.012365
vn -0.000000 0.999924 0.012365
vn -0.000000 0.999924 0.012365
vn -0.000000 0.999924 0.012365
vn -0.000000 0.999924 0.012365
vn -0.000000 0.999924 0.012365
vn -0.000000 0.999924 0.012365
vn -0.000000 0.999924 0.012365
vn -0.000000 0.999924 0.012365
vn -0.000000 0.999924 0.012365
vn -0.000000 0.999924 0.012365
vn -0.000000 0.999924 0.012365
vn -0.000000 0.999924 0.012365
vn -0.000000 0.999924 0.012365
vn -0.000000 0.999924 0.012365
vn -0.000000 0.999924 0.012365
vn -0.000000 0.999924 0.012365
vn -0.000000 0.999924 0.012365
vn -0.000000 0.999924 0.012365
vn -0.850652 -0.450597 0.270839
vn -0.000001 -0.999924 -0.012366
vn -0.723606 -0.453680 0.520162
vn -0.525730 -0.456126 0.718023
vn -0.276393 -0.457698 0.845056
vn 0.000000 -0.458239 0.888829
vn 0.276393 -0.457697 0.845056
vn 0.525730 -0.456127 0.718022
vn 0.723607 -0.453680 0.520161
vn 0.850652 -0.450597 0.270840
vn 0.894427 -0.447180 -0.005529
vn 0.850651 -0.443761 -0.281902
vn 0.723608 -0.440679 -0.531219
vn 0.525731 -0.438233 -0.729081
vn 0.276394 -0.436662 -0.856115
vn 0.000000 -0.436121 -0.899888
vn -0.276395 -0.436662 -0.856115
vn -0.525730 -0.438233 -0.729082
vn -0.723608 -0.440678 -0.531220
vn -0.850651 -0.443761 -0.281902
vn -0.894427 -0.447180 -0.005531
vn -0.000000 0.999924 0.012365
vn -0.000000 0.999924 0.012365
vn -0.000000 0.999924 0.012365
vn -0.000000 0.999924 0.012365
vn -0.000000 0.999924 0.012365
vn -0.000000 0.999924 0.012365
vn -0.000000 0.999924 0.012365
vn -0.000000 0.999924 0.012365
vn -0.000000 0.999924 0.012365
vn -0.000000 0.999924 0.012365
vn -0.000000 0.999924 0.012365
vn -0.000000 0.999924 0.012365
vn -0.000000 0.999924 0.012365
vn -0.000000 0.999924 0.012365
vn -0.000000 0.999924 0.012365
vn -0.000000 0.999924 0.012365
vn -0.000000 0.999924 0.012365
vn -0.000000 0.999924 0.012365
vn -0.000000 0.999924 0.012365
vn -0.000000 0.999924 0.012365
vn -0.850652 -0.450596 0.270841
vn -0.000000 -0.999924 -0.012365
vn -0.723607 -0.453680 0.520162
vn -0.525733 -0.456125 0.718021
vn -0.276396 -0.457698 0.845055
vn 0.000000 -0.458239 0.888829
vn 0.276394 -0.457698 0.845056
vn 0.525735 -0.456126 0.718019
vn 0.723607 -0.453680 0.520161
vn 0.850650 -0.450597 0.270845
vn 0.894427 -0.447181 -0.005529
vn 0.850648 -0.443763 -0.281908
vn 0.723608 -0.440679 -0.531219
vn 0.525734 -0.438233 -0.729079
vn 0.276395 -0.436662 -0.856115
vn 0.000000 -0.436121 -0.899888
vn -0.276396 -0.436662 -0.856114
vn -0.525731 -0.438232 -0.729081
vn -0.723607 -0.440679 -0.531220
vn -0.850650 -0.443762 -0.281903
vn -0.894427 -0.447179 -0.005529
vn -0.000000 0.999924 0.012364
vn -0.000000 0.999924 0.012364
vn -0.000000 0.999924 0.012364
vn -0.000000 0.999924 0.012364
vn -0.000000 0.999924 0.012364
vn -0.000000 0.999924 0.012364
vn -0.000000 0.999924 0.012364
vn -0.000000 0.999924 0.012364
vn -0.000000 0.999924 0.012364
vn -0.000000 0.999924 0.012364
vn -0.000000 0.999924 0.012364
vn -0.000000 0.999924 0.012364
vn -0.000000 0.999924 0.012364
vn -0.000000 0.999924 0.012364
vn -0.000000 0.999924 0.012364
vn -0.000000 0.999924 0.012364
vn -0.000000 0.999924 0.012364
vn -0.000000 0.999924 0.012364
vn -0.000000 0.999924 0.012364
vn -0.000000 0.999924 0.012364
vn 0.850652 -0.450596 0.270838
vn 0.723606 -0.453680 0.520163
vn -0.000000 -0.999924 -0.012366
vn 0.525732 -0.456125 0.718022
vn 0.276396 -0.457698 0.845055
vn -0.000000 -0.458239 0.888829
vn -0.276395 -0.457697 0.845056
vn -0.525734 -0.456126 0.718020
vn -0.723606 -0.453681 0.520162
vn -0.850650 -0.450597 0.270843
vn -0.894427 -0.447180 -0.005530
vn -0.850649 -0.443763 -0.281905
vn -0.723607 -0.440679 -0.531221
vn -0.525732 -0.438232 -0.729081
vn -0.276395 -0.436661 -0.856115
vn -0.000000 -0.436122 -0.899888
vn 0.276396 -0.436662 -0.856115
vn 0.525730 -0.438232 -0.729083
vn 0.723607 -0.440679 -0.531221
vn 0.850651 -0.443763 -0.281901
vn 0.894428 -0.447179 -0.005530
vn 0.000000 0.000000 1.000000
vn 0.000000 0.000000 1.000000
vn 0.000000 0.000000 1.000000
vn 0.000000 0.000000 1.000000
vn 0.000000 -1.000000 0.000000
vn 0.000000 -1.000000 0.000000
vn 0.000000 -1.000000 0.000000
vn 0.000000 -1.000000 0.000000
vn 0.000000 0.000000 -1.000000
vn 0.000000 0.000000 -1.000000
vn 0.000000 0.000000 -1.000000
vn 0.000000 0.000000 -1.000000
vn 0.000000 1.000000 0.000000
vn 0.000000 1.000000 0.000000
vn 0.000000 1.000000 0.000000
vn 0.000000 1.000000 0.000000
vn -1.000000 0.000000 0.000000
vn -1.000000 0.000000 0.000000
vn -1.000000 0.000000 0.000000
vn -1.000000 0.000000 0.000000
vn 0.000000 0.000000 0.000000
vn 0.000000 0.000000 0.000000
vn 0.000000 0.000000 0.000000
vn 0.000000 0.000000 0.000000
vn 0.000000 0.000000 0.000000
vn 0.000000 0.000000 0.000000
vn 1.000000 0.000000 0.000000
vn 1.000000 0.000000 0.000000
vn 0.000000 -1.000000 0.000000
vn 0.000000 -1.000000 0.000000
vn 0.000000 -1.000000 0.000000
vn 0.000000 -1.000000 0.000000
vn -1.000000 0.000000 0.000000
vn -1.000000 0.000000 0.000000
vn -0.000000 0.000000 0.000000
vn -0.000000 0.000000 0.000000
vn 0.000000 0.000000 0.000000
vn 0.000000 0.000000 0.000000
vn 0.000000 0.000000 0.000000
vn 0.000000 0.000000 0.000000
vn 0.000000 0.000000 0.000000
vn 0.000000 0.000000 0.000000
vn 0.000000 0.000000 0.000000
vn 0.000000 0.000000 0.000000
vn 0.000000 0.000000 0.000000
vn 0.000000 0.000000 0.000000
vn 0.000000 0.000000 0.000000
vn 0.000000 0.000000 0.000000
vn 0.000000 0.000000 0.000000
vn 0.000000 0.000000 0.000000
vn 0.000000 0.000000 0.000000
vn 0.000000 0.000000 0.000000
vn 0.000000 -1.000000 0.000000
vn 0.000000 -1.000000 0.000000
vn 0.000000 -1.000000 0.000000
vn 0.000000 -1.000000 0.000000
vn 1.000000 0.000000 0.000000
vn 1.000000 0.000000 0.000000
vn 0.000000 0.000000 0.000000
vn 0.000000 0.000000 0.000000
vn 0.000000 0.000000 0.000000
vn 0.000000 0.000000 0.000000
vn 0.000000 0.000000 0.000000
vn 0.000000 0.000000 0.000000
vn 0.000000 0.000000 0.000000
vn 0.000000 0.000000 0.000000
vn 0.000000 0.000000 0.000000
vn 0.000000 0.000000 0.000000
vn 0.000000 0.000000 0.000000
vn 0.000000 0.000000 0.000000
vn 1.000000 0.000000 0.000000
vn 1.000000 0.000000 0.000000
vn 0.000000 -1.000000 0.000000
vn 0.000000 -0.000000 0.000000
vn 0.000000 -0.000000 0.000000
vn 0.000000 -1.000000 0.000000
s off
g pCube13
usemtl initialShadingGroup
f 1/1/1 2/2/2 4/4/3 3/3/4
f 3/3/5 4/4/6 6/6/7 5/5/8
f 5/5/9 6/6/10 8/8/11 7/7/12
f 7/7/13 8/8/14 2/10/15 1/9/16
f 2/2/17 8/11/18 6/12/19 4/4/20
f 7/13/21 1/1/22 3/3/23 5/14/24
f 9/15/25 11/18/26 12/17/27 10/16/28
f 11/18/29 13/20/30 14/19/31 12/17/32
f 13/20/33 15/22/34 16/21/35 14/19/36
f 15/22/37 9/24/38 10/23/39 16/21/40
f 10/16/41 12/17/42 14/26/43 16/25/44
f 15/27/45 13/28/46 11/18/47 9/15/48
f 17/29/49 18/30/50 20/31/51 19/32/52
f 19/32/53 20/31/54 22/33/55 21/34/56
f 21/34/57 22/33/58 24/35/59 23/36/60
f 23/36/61 24/35/62 18/37/63 17/38/64
f 18/30/65 24/39/66 22/40/67 20/31/68
f 23/41/69 17/29/70 19/32/71 21/42/72
f 25/43/73 28/44/74 27/45/75 26/46/76
f 29/47/77 48/48/78 47/49/79 46/50/80 45/51/81 44/52/82 43/53/83 42/54/84 41/55/85 40/56/86 39/57/87 38/58/88 37/59/89 36/60/90 35/61/91 34/62/92 33/63/93 32/64/94 31/65/95 30/66/96
s 1
f 29/67/97 30/68/98 49/69/99
f 30/68/98 31/70/100 49/69/99
f 31/70/100 32/71/101 49/69/99
f 32/71/101 33/72/102 49/69/99
f 33/72/102 34/73/103 49/69/99
f 34/73/103 35/74/104 49/69/99
f 35/74/104 36/75/105 49/69/99
f 36/75/105 37/76/106 49/69/99
f 37/76/106 38/77/107 49/69/99
f 38/77/107 39/78/108 49/69/99
f 39/78/108 40/79/109 49/69/99
f 40/79/109 41/80/110 49/69/99
f 41/80/110 42/81/111 49/69/99
f 42/81/111 43/82/112 49/69/99
f 43/82/112 44/83/113 49/69/99
f 44/83/113 45/84/114 49/69/99
f 45/84/114 46/85/115 49/69/99
f 46/85/115 47/86/116 49/69/99
f 47/86/116 48/87/117 49/69/99
f 48/87/117 29/88/97 49/69/99
s off
f 50/89/118 51/90/119 52/91/120 53/92/121 54/93/122 55/94/123 56/95/124 57/96/125 58/97/126 59/98/127 60/99/128 61/100/129 62/101/130 63/102/131 64/103/132 65/104/133 66/105/134 67/106/135 68/107/136 69/108/137
s 2
f 50/109/138 70/110/139 51/111/140
f 51/111/140 70/110/139 52/112/141
f 52/112/141 70/110/139 53/113/142
f 53/113/142 70/110/139 54/114/143
f 54/114/143 70/110/139 55/115/144
f 55/115/144 70/110/139 56/116/145
f 56/116/145 70/110/139 57/117/146
f 57/117/146 70/110/139 58/118/147
f 58/118/147 70/110/139 59/119/148
f 59/119/148 70/110/139 60/120/149
f 60/120/149 70/110/139 61/121/150
f 61/121/150 70/110/139 62/122/151
f 62/122/151 70/110/139 63/123/152
f 63/123/152 70/110/139 64/124/153
f 64/124/153 70/110/139 65/125/154
f 65/125/154 70/110/139 66/126/155
f 66/126/155 70/110/139 67/127/156
f 67/127/156 70/110/139 68/128/157
f 68/128/157 70/110/139 69/129/158
f 69/129/158 70/110/139 50/130/138
s off
f 71/131/159 72/132/160 73/133/161 74/134/162 75/135/163 76/136/164 77/137/165 78/138/166 79/139/167 80/140/168 81/141/169 82/142/170 83/143/171 84/144/172 85/145/173 86/146/174 87/147/175 88/148/176 89/149/177 90/150/178
s 3
f 71/151/179 91/152/180 72/153/181
f 72/153/181 91/152/180 73/154/182
f 73/154/182 91/152/180 74/155/183
f 74/155/183 91/152/180 75/156/184
f 75/156/184 91/152/180 76/157/185
f 76/157/185 91/152/180 77/158/186
f 77/158/186 91/152/180 78/159/187
f 78/159/187 91/152/180 79/160/188
f 79/160/188 91/152/180 80/161/189
f 80/161/189 91/152/180 81/162/190
f 81/162/190 91/152/180 82/163/191
f 82/163/191 91/152/180 83/164/192
f 83/164/192 91/152/180 84/165/193
f 84/165/193 91/152/180 85/166/194
f 85/166/194 91/152/180 86/167/195
f 86/167/195 91/152/180 87/168/196
f 87/168/196 91/152/180 88/169/197
f 88/169/197 91/152/180 89/170/198
f 89/170/198 91/152/180 90/171/199
f 90/171/199 91/152/180 71/172/179
s off
f 92/173/200 111/174/201 110/175/202 109/176/203 108/177/204 107/178/205 106/179/206 105/180/207 104/181/208 103/182/209 102/183/210 101/184/211 100/185/212 99/186/213 98/187/214 97/188/215 96/189/216 95/190/217 94/191/218 93/192/219
s 4
f 92/193/220 93/194/221 112/195/222
f 93/194/221 94/196/223 112/195/222
f 94/196/223 95/197/224 112/195/222
f 95/197/224 96/198/225 112/195/222
f 96/198/225 97/199/226 112/195/222
f 97/199/226 98/200/227 112/195/222
f 98/200/227 99/201/228 112/195/222
f 99/201/228 100/202/229 112/195/222
f 100/202/229 101/203/230 112/195/222
f 101/203/230 102/204/231 112/195/222
f 102/204/231 103/205/232 112/195/222
f 103/205/232 104/206/233 112/195/222
f 104/206/233 105/207/234 112/195/222
f 105/207/234 106/208/235 112/195/222
f 106/208/235 107/209/236 112/195/222
f 107/209/236 108/210/237 112/195/222
f 108/210/237 109/211/238 112/195/222
f 109/211/238 110/212/239 112/195/222
f 110/212/239 111/213/240 112/195/222
f 111/213/240 92/214/220 112/195/222
s off
f 124/215/241 127/218/242 126/217/243 125/216/244
f 115/219/245 117/222/246 118/221/247 116/220/248
f 128/223/249 131/226/250 130/225/251 129/224/252
f 131/226/253 133/228/254 132/227/255 130/225/256
f 131/229/257 128/232/258 134/231/259 133/230/260
f 113/233/261 120/236/262 121/235/263 114/234/264
f 114/234/265 121/235/266 122/237/267 116/220/268
f 116/220/269 122/237/270 123/238/271 115/219/272
f 115/219/273 123/238/274 120/236/275 113/233/276
f 120/236/277 124/215/278 125/216/279 121/235/280
f 121/235/281 125/216/282 126/217/283 122/237/284
f 122/237/285 126/217/286 127/218/287 123/238/288
f 123/238/289 127/218/290 124/215/291 120/236/292
f 117/222/293 128/223/294 129/224/295 118/221/296
f 118/221/297 129/224/298 130/225/299 119/239/300
f 119/239/301 130/225/302 132/227/303 114/240/304
f 114/240/305 132/227/306 133/228/307 113/241/308
f 113/233/309 133/230/310 134/231/311 115/219/312
f 115/219/313 134/231/314 128/232/315 117/242/316
